<svg width="25" height="19" viewBox="0 0 25 19" fill="none" xmlns="http://www.w3.org/2000/svg">
<path d="M22.4 18.0005H1.6C1.17565 18.0005 0.768687 17.8108 0.468629 17.4732C0.168571 17.1357 0 16.6778 0 16.2005L0 8.62845H1.15267L1.41267 7.92045H1.99467L2.254 8.62545H4.522V8.0892L4.72467 8.6292H5.902L6.10467 8.0802V8.6277H11.74V7.4697H11.8467C11.9227 7.4727 11.9447 7.4802 11.9447 7.6227V8.6292H14.86V8.35995C15.158 8.5302 15.5093 8.62995 15.882 8.62995L15.9453 8.6292H15.942H17.1687L17.4313 7.9242H18.0133L18.27 8.6292H20.634V7.9587L20.9913 8.6292H22.882V4.2012H21.0107V4.72395L20.7487 4.2012H18.8247V4.72395L18.584 4.2012H15.986C15.5924 4.17883 15.2002 4.26996 14.8467 4.46595L14.8607 4.4592V4.2012H13.0687V4.4592C12.8518 4.26687 12.5778 4.17486 12.3027 4.20195H12.3067H5.758L5.31867 5.3457L4.86733 4.20195H2.80467V4.7247L2.57733 4.20195H0.817333L0.002 6.30195V1.80195C0.002 1.32456 0.170571 0.866726 0.470629 0.529161C0.770687 0.191595 1.17765 0.00195313 1.602 0.00195312H22.402C22.8263 0.00195313 23.2333 0.191595 23.5334 0.529161C23.8334 0.866726 24.002 1.32456 24.002 1.80195V9.66195H22.7533C22.7333 9.66045 22.7093 9.66045 22.686 9.66045C22.3967 9.66045 22.128 9.75795 21.904 9.9252L21.9093 9.92145V9.66195H20.0627C19.7742 9.64402 19.4887 9.73625 19.2527 9.9237L19.2567 9.9207V9.6612H15.9593V9.9207C15.6894 9.74945 15.3846 9.66003 15.0747 9.6612H15.0487H15.05H12.8747V9.9207C12.5905 9.7159 12.2532 9.62475 11.9173 9.66195L11.9233 9.6612H9.48933L8.932 10.3392L8.41067 9.6612H4.77467V14.0922H8.34267L8.91667 13.4037L9.45733 14.0922H11.6567V13.055H11.9633C12.2582 13.0679 12.5523 13.0125 12.8273 12.8922L12.8127 12.8982V14.0937H14.626V12.9395H14.7133C14.824 12.9395 14.8353 12.944 14.8353 13.07V14.0945H20.346L20.4133 14.096C20.7293 14.096 21.024 13.9895 21.2693 13.8072L21.2633 13.811V14.0945H23.0113L23.0947 14.096C23.422 14.096 23.7333 14.0202 24.016 13.883L24.0007 13.8897V16.2012C24.0007 16.6786 23.8321 17.1364 23.532 17.474C23.232 17.8116 22.825 18.0012 22.4007 18.0012L22.4 18.0005ZM14.07 13.4712H13.3913V10.295H14.9487C15.2299 10.2656 15.5132 10.3189 15.7707 10.4495L15.76 10.445C15.9687 10.574 16.108 10.82 16.108 11.102L16.1067 11.1522V11.15L16.1073 11.1785C16.1073 11.543 15.912 11.8565 15.632 11.993L15.6267 11.9952C15.7607 12.0492 15.8727 12.1415 15.956 12.2607L15.9573 12.2622C16.0515 12.4375 16.0909 12.6431 16.0693 12.8465L16.07 12.842V13.4705H15.3927V13.073C15.4247 12.8565 15.3861 12.6344 15.284 12.4475L15.286 12.4512C15.2156 12.3911 15.1352 12.3477 15.0494 12.3236C14.9637 12.2995 14.8746 12.2952 14.7873 12.311L14.7913 12.3102H14.07V13.4705V13.4712ZM14.07 10.9512V11.6645H14.89C15.0058 11.6765 15.1223 11.6532 15.2273 11.597L15.2233 11.5992C15.2662 11.568 15.3015 11.5253 15.326 11.4749C15.3504 11.4244 15.3633 11.3679 15.3633 11.3105L15.3627 11.2932V11.294C15.366 11.2366 15.3548 11.1794 15.3303 11.129C15.3059 11.0785 15.2693 11.0369 15.2247 11.009L15.2233 11.0082C15.1222 10.9573 15.011 10.9366 14.9007 10.9482H14.9033L14.07 10.9512ZM8.05333 13.4705H5.382V10.295H8.09533L8.92533 11.336L9.78333 10.295H11.9387C12.704 10.295 13.076 10.6377 13.076 11.3412C13.076 12.0575 12.6913 12.4055 11.9027 12.4055H11.0593V13.4697H9.748L8.91733 12.4205L8.054 13.4705H8.05333ZM10.3873 10.6355L9.35133 11.888L10.3873 13.181V10.6355ZM6.05467 12.1767V12.8082H7.71333L8.48 11.8767L7.74267 10.9512H6.054V11.5287H7.53533V12.176L6.05467 12.1767ZM11.0593 10.952V11.7605H11.9307C12.1973 11.7605 12.3507 11.6075 12.3507 11.3405C12.3507 11.0855 12.208 10.9512 11.938 10.9512L11.0593 10.952ZM23.0847 13.472H21.782V12.7895H23.0793C23.1764 12.8045 23.2748 12.7759 23.3533 12.71L23.3527 12.7107C23.3777 12.6846 23.3977 12.6529 23.4113 12.6176C23.425 12.5824 23.432 12.5444 23.432 12.506V12.5037V12.494C23.4321 12.456 23.4247 12.4185 23.4106 12.384C23.3964 12.3496 23.3757 12.319 23.35 12.2945C23.281 12.2384 23.1959 12.2132 23.1113 12.224H23.1127L22.988 12.2195C22.3787 12.2015 21.6887 12.1805 21.6887 11.2407C21.6887 10.7832 21.9433 10.295 22.656 10.295H24.0007V10.9715H22.7707C22.6757 10.9595 22.5797 10.981 22.496 11.033L22.4987 11.0315C22.4658 11.0558 22.4393 11.0897 22.422 11.1296C22.4048 11.1694 22.3974 11.2138 22.4007 11.258V11.2572V11.2655C22.4007 11.316 22.4148 11.3652 22.4412 11.4062C22.4675 11.4471 22.5047 11.4777 22.5473 11.4935L22.5487 11.4942C22.6332 11.5235 22.7217 11.5357 22.81 11.5302H22.808L23.174 11.5407C23.4499 11.5097 23.7255 11.6021 23.9413 11.798L23.9393 11.7965C23.9593 11.8145 23.9767 11.834 23.992 11.8557L23.9927 11.8565L24.0007 13.0655C23.8886 13.2128 23.7459 13.3269 23.5854 13.3977C23.4248 13.4685 23.2513 13.4937 23.08 13.4712L23.0847 13.472ZM20.452 13.472H19.1373V12.7895H20.4453C20.5432 12.8039 20.6423 12.7754 20.722 12.71L20.7207 12.7107C20.7456 12.6845 20.7654 12.6528 20.7789 12.6175C20.7925 12.5823 20.7994 12.5443 20.7993 12.506V12.5037V12.4985C20.7993 12.4599 20.792 12.4217 20.7778 12.3865C20.7637 12.3514 20.7431 12.32 20.7173 12.2945C20.6471 12.2383 20.561 12.2132 20.4753 12.224H20.4767L20.3527 12.2195C19.7453 12.2015 19.056 12.1805 19.056 11.2407C19.056 10.7832 19.3093 10.295 20.0207 10.295H21.3727V10.9715H20.1353C20.041 10.9596 19.9457 10.9811 19.8627 11.033L19.8653 11.0315C19.8303 11.0586 19.8025 11.0958 19.7847 11.1393C19.7669 11.1827 19.7599 11.2308 19.7645 11.2783C19.769 11.3259 19.7848 11.3712 19.8103 11.4094C19.8358 11.4477 19.87 11.4775 19.9093 11.4957L19.9107 11.4965C19.9963 11.526 20.0859 11.5382 20.1753 11.5325H20.1733L20.5367 11.543C20.814 11.5129 21.0909 11.6054 21.3087 11.801L21.3067 11.7987C21.3799 11.8896 21.4356 11.9965 21.4703 12.1128C21.505 12.2291 21.5178 12.3523 21.508 12.4745V12.4707C21.51 13.133 21.1533 13.4705 20.45 13.4705L20.452 13.472ZM18.7333 13.472H16.48V10.2942H18.7313V10.9505H17.1533V11.528H18.6947V12.1752H17.1533V12.8067L18.7333 12.8097V13.4697V13.472ZM20.0467 8.00745H18.6727L18.41 7.29945H17.0087L16.754 8.00745H15.9647C15.6102 8.02848 15.2611 7.90283 14.9833 7.6542L14.9867 7.65645C14.8547 7.49259 14.7545 7.29958 14.6925 7.08974C14.6306 6.87991 14.6081 6.65784 14.6267 6.4377L14.626 6.4437C14.6088 6.21951 14.6324 5.99374 14.6952 5.7801C14.758 5.56646 14.8587 5.36942 14.9913 5.20095L14.99 5.20245C15.13 5.06474 15.2937 4.96091 15.4709 4.89743C15.6481 4.83395 15.835 4.81217 16.02 4.83345L16.0147 4.8327H16.668V5.50995H16.028C15.9344 5.49638 15.8392 5.50622 15.7493 5.53875C15.6594 5.57129 15.577 5.62574 15.508 5.6982L15.5087 5.69745C15.3661 5.90281 15.2969 6.16067 15.3147 6.42045V6.4167C15.2934 6.6836 15.3601 6.94998 15.502 7.1652L15.5 7.1622C15.6325 7.28405 15.8022 7.34274 15.9727 7.3257H15.97H16.2727L17.2267 4.8282H18.24L19.382 7.8282V4.8282H20.4093L21.5947 7.0392V4.8282H22.288V8.0022H21.3253L20.0453 5.6187V8.0022L20.0467 8.00745ZM17.714 5.36895L17.2493 6.63495H18.1807L17.714 5.36895ZM11.1813 8.00595H10.5067V4.83045H12.0587C12.342 4.79738 12.6279 4.85156 12.886 4.9872L12.876 4.9827C12.9798 5.04725 13.0663 5.14188 13.1265 5.25676C13.1868 5.37163 13.2186 5.50257 13.2187 5.63595L13.2173 5.68845V5.6862V5.70945C13.2174 5.88267 13.173 6.05222 13.0895 6.19776C13.006 6.3433 12.887 6.45865 12.7467 6.52995L12.7413 6.5322C12.8753 6.5892 12.988 6.6807 13.074 6.7977L13.0753 6.7992C13.1705 6.97514 13.2097 7.18217 13.1867 7.38645L13.1873 7.38195V8.0052H12.5067L12.504 7.6047V7.5447C12.5282 7.34888 12.4897 7.14975 12.3953 6.98295L12.3973 6.9867C12.3267 6.92835 12.2465 6.8863 12.1614 6.863C12.0763 6.8397 11.9879 6.83561 11.9013 6.85095L11.9053 6.8502H11.182V8.0052L11.1813 8.00595ZM11.1813 5.4912V6.1962H12C12.1156 6.21032 12.2325 6.18689 12.3367 6.1287L12.3333 6.1302C12.376 6.101 12.4113 6.05993 12.4359 6.01093C12.4604 5.96194 12.4733 5.90668 12.4733 5.85045L12.4727 5.82945V5.8302C12.4761 5.77322 12.4645 5.71636 12.4395 5.66664C12.4146 5.61693 12.3772 5.57654 12.332 5.55045L12.3307 5.5497C12.2292 5.50074 12.1187 5.48015 12.0087 5.4897H12.0107L11.1813 5.4912ZM4.03733 8.00595H2.66667L2.40733 7.29795H1.002L0.740667 8.00595H0.00733333L1.216 4.83045H2.218L3.36533 7.8357V4.83045H4.466L5.34867 6.9837L6.16 4.83045H7.28333V8.00445H6.59L6.58867 5.52045L5.61067 8.0052H5.01867L4.038 5.5167V8.0052L4.03733 8.00595ZM1.70133 5.36895L1.242 6.63495H2.16333L1.70133 5.36895ZM14.2933 8.0052H13.6053V4.83045H14.294V8.00445L14.2933 8.0052ZM10.036 8.0052H7.78667V4.83045H10.04V5.49045H8.46133V6.0627H10.002V6.71445H8.46V7.34895H10.0387V8.00445L10.036 8.0052Z" fill="black"/>
</svg>
