<svg width="24" height="18" viewBox="0 0 24 18" fill="none" xmlns="http://www.w3.org/2000/svg">
<path d="M9.11222 0.230526L5.97 12.8555H3.92006L2.37375 2.77958C2.28 2.16047 2.19853 1.93263 1.91325 1.67084C1.44694 1.24421 0.676875 0.84521 0 0.597L0.0456562 0.230526H3.34603C3.76603 0.230526 4.14422 0.701526 4.24041 1.51705L5.05744 8.82332L7.07456 0.230526H9.11222ZM11.8835 0.230526L10.2801 12.8555H8.34056L9.94416 0.230526H11.8836H11.8835ZM17.1443 8.73347C17.1524 5.40205 14.4093 5.21716 14.4272 3.72868C14.4338 3.27616 14.6897 2.79442 15.2499 2.67126C15.5274 2.61079 16.2941 2.56263 17.1625 3.23653L17.5023 0.557684C17.0357 0.273474 16.4352 0 15.6883 0C13.7711 0 12.4225 1.71505 12.4117 4.17284C12.3992 5.99084 13.375 7.00405 14.1089 7.60958C14.8648 8.22789 15.1183 8.62532 15.1148 9.17795C15.1094 10.0251 14.5111 10.4001 13.9549 10.4139C12.9795 10.44 12.4141 9.96995 11.9631 9.61611L11.611 12.3837C12.0648 12.7339 12.901 13.0382 13.7672 13.0536C15.8053 13.0536 17.1383 11.3583 17.1443 8.73363V8.73347ZM22.2068 12.8555H24L22.4334 0.230526H20.779C20.4059 0.230526 20.0923 0.595263 19.9532 1.15595L17.0432 12.8555H19.0797L19.4837 10.9696H21.9718L22.2069 12.8555H22.2068ZM20.0422 8.38247L21.0633 3.64137L21.6499 8.38247H20.0421H20.0422ZM14.3656 16.3306H13.5775V17.5658H14.459V17.9372H13.312V14.5105H14.4138V14.8819H13.5775V15.9646H14.3655V16.3309L14.3656 16.3306ZM14.8661 14.3275H15.1316V17.937H14.8661V14.3275ZM15.8016 16.788C15.8076 17.3932 16.0341 17.6422 16.3026 17.6422C16.4929 17.6422 16.6105 17.5863 16.7073 17.5153L16.7555 17.8356C16.6619 17.9067 16.499 17.9931 16.2664 17.9931C15.8167 17.9931 15.5482 17.4898 15.5482 16.7474C15.5482 16.0053 15.8076 15.4255 16.2333 15.4255C16.7133 15.4255 16.837 16.1274 16.837 16.5797C16.837 16.6712 16.8339 16.7372 16.8278 16.7882H15.8016V16.788ZM16.5803 16.4678C16.5834 16.1883 16.511 15.7459 16.2121 15.7459C15.9404 15.7459 15.8257 16.1577 15.8045 16.4678H16.5803ZM18.2823 17.8506C18.2129 17.9067 18.0589 17.9932 17.8627 17.9932C17.422 17.9932 17.1353 17.4898 17.1353 16.7373C17.1353 15.9797 17.443 15.4257 17.92 15.4257C18.077 15.4257 18.2158 15.4915 18.2883 15.5578L18.2281 15.8984C18.1644 15.8425 18.0649 15.7813 17.92 15.7813C17.5849 15.7813 17.4039 16.2033 17.4039 16.7121C17.4039 17.2813 17.6213 17.6321 17.911 17.6321C18.062 17.6321 18.1615 17.5712 18.237 17.5153L18.2823 17.8506ZM19.0274 14.8866V15.4764H19.4077V15.8168H19.0274V17.1439C19.0274 17.4493 19.0788 17.6218 19.2266 17.6218C19.299 17.6218 19.3414 17.6119 19.3807 17.5912L19.3927 17.9323C19.3414 17.9626 19.2599 17.9931 19.1572 17.9931C19.0334 17.9931 18.9338 17.9218 18.8705 17.8052C18.798 17.6676 18.7678 17.4493 18.7678 17.1594V15.8168H18.5413V15.4764H18.7678V15.0189L19.0275 14.8868L19.0274 14.8866ZM19.7786 16.2442C19.7786 15.9543 19.7754 15.7053 19.7665 15.4764H19.999L20.0112 15.9643H20.02C20.0866 15.6341 20.2494 15.4255 20.4275 15.4255C20.4548 15.4255 20.4759 15.4307 20.5001 15.4356V15.8578C20.4729 15.8474 20.4458 15.8474 20.4094 15.8474C20.2224 15.8474 20.0894 16.0813 20.0533 16.4171C20.0471 16.4861 20.044 16.5558 20.0442 16.6255V17.9373H19.7786V16.2442ZM22.1328 16.6863C22.1328 17.5964 21.7553 17.9931 21.4053 17.9931C21.0128 17.9931 20.705 17.5048 20.705 16.7272C20.705 15.9085 21.0279 15.4257 21.4295 15.4257C21.849 15.4257 22.1328 15.9388 22.1328 16.6865V16.6863ZM20.9766 16.7119C20.9766 17.2508 21.1577 17.6577 21.4173 17.6577C21.671 17.6577 21.861 17.2557 21.861 16.7016C21.861 16.2848 21.7372 15.7609 21.4233 15.7609C21.1125 15.7609 20.9766 16.2493 20.9766 16.7119ZM22.5398 16.1424C22.5398 15.8833 22.5367 15.6797 22.5277 15.4765H22.7632L22.7782 15.8833H22.7843C22.8567 15.6543 23.0258 15.4257 23.2673 15.4257C23.4694 15.4257 23.7834 15.6291 23.7834 16.4727V17.9372H23.5178V16.5186C23.5178 16.1223 23.4303 15.7915 23.1798 15.7915C23.0077 15.7915 22.8717 16.0001 22.8236 16.2491C22.8114 16.3052 22.8054 16.3813 22.8054 16.4577V17.9372H22.5398V16.1424Z" fill="#1A1F71"/>
</svg>
